<?xml version="1.0" encoding="UTF-8"?>
<svg width="140px" height="22px" viewBox="0 0 140 22" version="1.1" xmlns="http://www.w3.org/2000/svg" xmlns:xlink="http://www.w3.org/1999/xlink">
    <!-- Generator: Sketch 55.2 (78181) - https://sketchapp.com -->
    <title>apty-automation-admin-logo</title>
    <desc>Created with Sketch.</desc>
    <g id="apty-automation-admin-logo" stroke="none" stroke-width="1" fill="none" fill-rule="evenodd">
        <text id="automation" opacity="0.8" font-family="MavenProRegular, Maven Pro" font-size="22" font-weight="normal" letter-spacing="-1.24528304" fill="#FFFFFF">
            <tspan x="39.8118812" y="17">automation</tspan>
        </text>
        <path d="M3.62920467,13.0102875 C3.62920467,14.1540195 4.31478048,14.72561 5.68660801,14.72561 L5.70789848,14.72561 C7.01562929,14.72561 7.66910042,14.1854377 7.66910042,13.1044318 L7.66910042,11.7552138 C7.05787229,11.6715422 6.53574874,11.6263441 6.10227918,11.6191786 C4.46065966,11.6191786 3.63618884,12.0830653 3.62920467,13.0102875 Z M1,13.3345011 C1,13.1185424 1.02140312,12.8970718 1.06465996,12.6704199 C1.10735356,12.4438783 1.22011422,12.1596815 1.40294195,11.8179399 C1.58565703,11.4764188 1.83472179,11.176568 2.15002358,10.918498 C2.46532538,10.6606484 2.93123757,10.4391778 3.54730956,10.2543066 C4.1634942,10.0697661 4.89086243,9.97716517 5.7293016,9.97716517 C6.32611079,9.97716517 6.96583886,10.0260011 7.6476973,10.1235629 C7.6476973,8.76387215 6.87662164,8.08402679 5.33492091,8.08402679 C4.1036781,8.08402679 3.03385991,8.26548057 2.12535367,8.62794718 L2.12535367,6.51521225 C3.13389134,6.15274565 4.25327467,5.97129187 5.48406688,5.97129187 C7.04232687,5.97129187 8.23448081,6.36010565 9.06007811,7.13751273 C9.88567541,7.91514029 10.2983051,9.03947024 10.2983051,10.5106128 L10.2983051,13.3973374 C10.2983051,14.3804509 9.92262396,15.2260961 9.17182494,15.9336115 C8.42091327,16.6414576 7.26615847,16.9952153 5.70789848,16.9952153 C4.09568009,16.9952153 2.90780678,16.6395835 2.14461648,15.9284302 C1.38153883,15.2171667 1,14.3527809 1,13.3345011 Z M14.3802411,14.86857 C14.9853773,14.9523195 15.5231887,14.9942494 15.9931121,14.9942494 C16.8406407,14.9942494 17.4869825,14.7518283 17.9319124,14.2665447 C18.3767298,13.7815922 18.5995325,12.9250082 18.5995325,11.6964617 C18.5995325,10.4402194 18.4322335,9.53309882 18.0975228,8.97454823 C17.7625869,8.41632867 17.1787289,8.13705338 16.3456111,8.13705338 C15.035477,8.13705338 14.3802411,8.52104312 14.3802411,9.28869156 L14.3802411,14.86857 Z M11.7525424,20.7416268 L11.7525424,9.52945754 C11.7525424,8.54531833 12.1280083,7.69921681 12.8795031,6.99071161 C13.6309979,6.28253744 14.7861045,5.92822967 16.3456111,5.92822967 C16.7072292,5.92822967 17.0671587,5.95614616 17.4250616,6.01186881 C17.7834148,6.06792248 18.2048148,6.2144565 18.6907252,6.45158119 C19.1762978,6.68903691 19.5928567,6.99600802 19.9405145,7.37282553 C20.287722,7.74975339 20.5888828,8.30300756 20.8442222,9.03214669 C21.0995615,9.76161685 21.2271186,10.6042978 21.2271186,11.5604101 C21.2271186,13.3118668 20.791308,14.6570446 19.9191236,15.5959437 C19.046489,16.534953 17.7988388,17.004237 16.1747093,17.004237 C15.5621425,17.004237 14.964099,16.9409008 14.3802411,16.8136766 L14.3802411,20.7416268 L11.7525424,20.7416268 Z M21.7118644,8.36433754 L21.7118644,6.16226086 L23.549287,6.16226086 L23.549287,3 L26.1773936,3 L26.1773936,6.16226086 L28.7627119,6.16226086 L28.7627119,8.36433754 L26.1773936,8.36433754 L26.1773936,13.6242857 C26.1773936,14.0835329 26.2751313,14.3931811 26.4712822,14.5531201 C26.6673204,14.7132791 27.0144692,14.7931386 27.5128411,14.7931386 C27.9828376,14.7931386 28.3995737,14.7166891 28.7627119,14.56357 L28.7627119,16.6821572 C28.2499271,16.8908259 27.6907506,16.9952153 27.0855204,16.9952153 L27.032035,16.9952153 C25.9493767,16.9952153 25.0984511,16.6821572 24.478808,16.055931 C23.8591649,15.4297048 23.549287,14.5672 23.549287,13.4677567 L23.549287,8.36433754 L21.7118644,8.36433754 Z M29.7322034,6.10047847 L32.5209738,6.10047847 L34.9676231,13.53718 L37.3715918,6.10047847 L40,6.10047847 L35.993423,17.0477404 C35.4094074,18.6019528 34.7752786,19.6493352 34.0914871,20.1896672 C33.4076955,20.7297789 32.6987911,21 31.9653368,21 C31.4241145,21 30.8717433,20.9009263 30.309237,20.7031094 L30.309237,18.5329648 C30.7296246,18.7070877 31.1425797,18.7938186 31.5486654,18.7938186 C32.3034037,18.7938186 33.0053261,17.9314693 33.653419,16.2071015 L29.7322034,6.10047847 Z" id="Combined-Shape" fill="#FF4001"></path>
    </g>
</svg>